<svg width="20" height="20" viewBox="0 0 20 20" fill="none" xmlns="http://www.w3.org/2000/svg">
<path d="M16.6667 7.50002V5.83335C16.6667 5.39133 16.4911 4.9674 16.1785 4.65484C15.866 4.34228 15.442 4.16669 15 4.16669H10" stroke="white" stroke-width="2" stroke-linecap="round" stroke-linejoin="round"/>
<path d="M12.5 1.66669L10 4.16669L12.5 6.66669" stroke="white" stroke-width="2" stroke-linecap="round" stroke-linejoin="round"/>
<path d="M16.6666 10.8334V15C16.6666 15.442 16.4911 15.866 16.1785 16.1785C15.8659 16.4911 15.442 16.6667 15 16.6667H4.99998C4.55795 16.6667 4.13403 16.4911 3.82147 16.1785C3.50891 15.866 3.33331 15.442 3.33331 15V5.83335C3.33331 5.39133 3.50891 4.9674 3.82147 4.65484C4.13403 4.34228 4.55795 4.16669 4.99998 4.16669H6.66665" stroke="white" stroke-width="2" stroke-linecap="round" stroke-linejoin="round"/>
</svg>
