<svg width="34" height="34" viewBox="0 0 34 34" fill="none" xmlns="http://www.w3.org/2000/svg">
<path d="M12.75 4.75H21.25C21.3423 4.7501 21.4332 4.77287 21.5146 4.81641C21.5961 4.85999 21.6655 4.92324 21.7168 5L23.5273 7.71484L23.6758 7.9375H27.625C28.3378 7.9375 29.0214 8.22061 29.5254 8.72461C30.0294 9.22861 30.3125 9.91223 30.3125 10.625V25.5L30.2998 25.7656C30.2387 26.3809 29.9664 26.9594 29.5254 27.4004C29.0214 27.9044 28.3378 28.1875 27.625 28.1875H6.375C5.66223 28.1875 4.97861 27.9044 4.47461 27.4004C3.97061 26.8964 3.6875 26.2128 3.6875 25.5V10.625C3.6875 9.91223 3.97061 9.22861 4.47461 8.72461C4.97861 8.22061 5.66223 7.9375 6.375 7.9375H10.3223L10.4707 7.71484L12.2822 5H12.2832C12.3345 4.92324 12.4039 4.85999 12.4854 4.81641C12.5466 4.78367 12.6131 4.76237 12.6816 4.75391L12.75 4.75ZM12.9023 6.09766L11.0938 8.8125C11.0424 8.88949 10.9723 8.95245 10.8906 8.99609C10.809 9.03969 10.7176 9.06256 10.625 9.0625H6.375C5.9606 9.0625 5.56353 9.22748 5.27051 9.52051C4.97748 9.81353 4.8125 10.2106 4.8125 10.625V25.5C4.8125 25.9144 4.97748 26.3115 5.27051 26.6045C5.56353 26.8975 5.9606 27.0625 6.375 27.0625H27.625C28.0394 27.0625 28.4365 26.8975 28.7295 26.6045C29.0225 26.3115 29.1875 25.9144 29.1875 25.5V10.625C29.1875 10.2106 29.0225 9.81353 28.7295 9.52051C28.4365 9.22748 28.0394 9.0625 27.625 9.0625H23.375L23.3057 9.05859C23.2371 9.05017 23.1706 9.0288 23.1094 8.99609C23.0277 8.95245 22.9577 8.88949 22.9062 8.8125L21.0967 6.09766L20.9482 5.875H13.0508L12.9023 6.09766ZM16.999 12.1875C18.4159 12.1891 19.7745 12.753 20.7764 13.7549C21.7156 14.6941 22.2699 15.9463 22.3369 17.2666L22.3438 17.5322C22.3436 18.5887 22.0303 19.6215 21.4434 20.5C20.8562 21.3787 20.0213 22.0633 19.0449 22.4678C18.0685 22.8722 16.9936 22.9787 15.957 22.7725C14.9206 22.5662 13.9689 22.0568 13.2217 21.3096C12.4744 20.5623 11.965 19.6106 11.7588 18.5742C11.5526 17.5376 11.659 16.4628 12.0635 15.4863C12.4679 14.5099 13.1525 13.675 14.0312 13.0879C14.9097 12.501 15.9425 12.1877 16.999 12.1875ZM18.6143 13.6338C17.8434 13.3145 16.9951 13.2308 16.1768 13.3936C15.3585 13.5564 14.6066 13.9579 14.0166 14.5479C13.4266 15.1378 13.0251 15.8897 12.8623 16.708C12.6995 17.5263 12.7833 18.3747 13.1025 19.1455C13.4218 19.9164 13.9625 20.5755 14.6562 21.0391C15.35 21.5026 16.1656 21.75 17 21.75C18.1189 21.75 19.1922 21.3058 19.9834 20.5146C20.7746 19.7235 21.2188 18.6501 21.2188 17.5312C21.2188 16.6969 20.9713 15.8813 20.5078 15.1875C20.0443 14.4937 19.3851 13.9531 18.6143 13.6338Z" fill="white" stroke="white"/>
</svg>
