<svg width="30" height="30" viewBox="0 0 30 30" fill="none" xmlns="http://www.w3.org/2000/svg">
<path d="M21.25 18.75L14.375 25.625L11.25 22.5" stroke="#7BD98E" stroke-width="2" stroke-linecap="round" stroke-linejoin="round"/>
<path d="M6.2501 22.1788C5.10372 21.38 4.16528 20.3184 3.51329 19.0826C2.8613 17.8469 2.51471 16.473 2.50253 15.0758C2.49035 13.6787 2.81292 12.2989 3.44327 11.052C4.07361 9.80504 4.99339 8.72719 6.12567 7.90859C7.25796 7.08998 8.56981 6.55443 9.95148 6.34673C11.3332 6.13903 12.7445 6.26523 14.0674 6.71476C15.3903 7.16429 16.5863 7.92409 17.5554 8.93059C18.5245 9.93709 19.2385 11.161 19.6376 12.5H21.8751C23.2016 12.5005 24.4853 12.9699 25.4993 13.8251C26.5133 14.6803 27.1925 15.8663 27.4168 17.1737C27.6411 18.4811 27.3962 19.8258 26.7253 20.9701C26.0543 22.1144 25.0006 22.9848 23.7501 23.4275" stroke="#7BD98E" stroke-width="2" stroke-linecap="round" stroke-linejoin="round"/>
</svg>
