<svg width="28" height="28" viewBox="0 0 28 28" fill="none" xmlns="http://www.w3.org/2000/svg">
<path d="M14 23.8C15.5463 23.8 16.7999 22.5464 16.7999 21C16.7999 19.4536 15.5463 18.2 14 18.2C12.4536 18.2 11.2 19.4536 11.2 21C11.2 22.5464 12.4536 23.8 14 23.8Z" fill="#FE5959"/>
<path d="M14 16.8C15.5463 16.8 16.7999 15.5464 16.7999 14C16.7999 12.4536 15.5463 11.2 14 11.2C12.4536 11.2 11.2 12.4536 11.2 14C11.2 15.5464 12.4536 16.8 14 16.8Z" fill="#FE5959"/>
<path d="M14 9.8C15.5463 9.8 16.7999 8.54639 16.7999 7C16.7999 5.4536 15.5463 4.2 14 4.2C12.4536 4.2 11.2 5.4536 11.2 7C11.2 8.54639 12.4536 9.8 14 9.8Z" fill="#FE5959"/>
</svg>
