<svg width="30" height="30" viewBox="0 0 30 30" fill="none" xmlns="http://www.w3.org/2000/svg">
<path d="M22.955 22.955C21.6468 24.2632 20.0362 25.2286 18.2658 25.7656C16.4953 26.3026 14.6198 26.3948 12.8053 26.0338C10.9908 25.6729 9.29329 24.87 7.86317 23.6964C6.43305 22.5227 5.31445 21.0144 4.60646 19.3052C3.89847 17.596 3.62293 15.7385 3.80427 13.8973C3.9856 12.0562 4.6182 10.2882 5.64603 8.74988C6.67387 7.2116 8.06521 5.95055 9.69682 5.07842C11.3284 4.2063 13.1499 3.75002 15 3.75C20.0725 3.75 23.1475 7.13125 26.25 10.625" stroke="#A59F9F" stroke-width="1.5" stroke-linecap="round" stroke-linejoin="round"/>
<path d="M26.25 5.625V10.625H21.25" stroke="#A59F9F" stroke-width="1.5" stroke-linecap="round" stroke-linejoin="round"/>
</svg>
