<svg width="30" height="30" viewBox="0 0 30 30" fill="none" xmlns="http://www.w3.org/2000/svg">
<path d="M24.3563 25.1925L16.5288 17.365C15.9038 17.8975 15.185 18.3096 14.3725 18.6012C13.56 18.8929 12.7433 19.0387 11.9225 19.0387C9.92084 19.0387 8.22668 18.3458 6.84001 16.96C5.45334 15.5742 4.76001 13.8804 4.76001 11.8787C4.76001 9.87708 5.45251 8.1825 6.83751 6.795C8.22251 5.4075 9.91584 4.71291 11.9175 4.71125C13.9192 4.70958 15.6142 5.40291 17.0025 6.79125C18.3908 8.17958 19.085 9.87416 19.085 11.875C19.085 12.7433 18.9313 13.5837 18.6238 14.3962C18.3163 15.2087 17.9121 15.9037 17.4113 16.4812L25.2388 24.3075L24.3563 25.1925ZM11.9238 17.7875C13.5821 17.7875 14.9821 17.2167 16.1238 16.075C17.2654 14.9333 17.8363 13.5329 17.8363 11.8737C17.8363 10.2146 17.2654 8.81458 16.1238 7.67375C14.9821 6.53291 13.5821 5.96208 11.9238 5.96125C10.2654 5.96041 8.86501 6.53125 7.72251 7.67375C6.58001 8.81625 6.00918 10.2162 6.01001 11.8737C6.01084 13.5312 6.58168 14.9312 7.72251 16.0737C8.86334 17.2162 10.2633 17.7871 11.9225 17.7862" fill="#A59F9F"/>
</svg>
