<svg width="30" height="30" viewBox="0 0 30 30" fill="none" xmlns="http://www.w3.org/2000/svg">
<path d="M7.045 22.955C8.3532 24.2632 9.96384 25.2286 11.7342 25.7656C13.5047 26.3026 15.3802 26.3948 17.1947 26.0338C19.0092 25.6729 20.7067 24.87 22.1368 23.6964C23.567 22.5227 24.6855 21.0144 25.3935 19.3052C26.1015 17.596 26.3771 15.7385 26.1957 13.8973C26.0144 12.0562 25.3818 10.2882 24.354 8.74988C23.3261 7.2116 21.9348 5.95055 20.3032 5.07842C18.6716 4.2063 16.8501 3.75002 15 3.75C9.9275 3.75 6.8525 7.13125 3.75 10.625" stroke="#A59F9F" stroke-width="1.5" stroke-linecap="round" stroke-linejoin="round"/>
<path d="M3.75 5.625V10.625H8.75" stroke="#A59F9F" stroke-width="1.5" stroke-linecap="round" stroke-linejoin="round"/>
</svg>
