<svg width="29" height="29" viewBox="0 0 29 29" fill="none" xmlns="http://www.w3.org/2000/svg">
<path d="M23.0307 5.89743C22.2988 4.15027 21.0668 2.65834 19.4894 1.60907C17.912 0.5598 16.0596 0 14.165 0C12.2704 0 10.418 0.5598 8.8406 1.60907C7.26321 2.65834 6.03116 4.15027 5.29924 5.89743C3.7186 6.61973 2.37881 7.78087 1.43934 9.24267C0.499869 10.7045 0.000279191 12.4053 2.94704e-05 14.1429C-0.0126178 18.9731 4.04716 23.1458 8.87084 23.2722C10.3545 23.308 11.8245 22.9812 13.1532 22.3201V27.3184C13.1532 27.5867 13.2598 27.844 13.4496 28.0337C13.6393 28.2234 13.8967 28.33 14.165 28.33C14.4333 28.33 14.6907 28.2234 14.8804 28.0337C15.0702 27.844 15.1768 27.5867 15.1768 27.3184V22.3201C16.4346 22.9445 17.8196 23.2703 19.2239 23.2722H19.4541C24.2828 23.1458 28.3439 18.9731 28.33 14.1429C28.3297 12.4053 27.8301 10.7045 26.8907 9.24267C25.9512 7.78087 24.6114 6.61973 23.0307 5.89743ZM19.4073 21.2491C17.8985 21.2884 16.4165 20.8454 15.1768 19.9846V14.8004L20.6885 12.0464C20.8074 11.987 20.9134 11.9047 21.0005 11.8043C21.0877 11.7039 21.1541 11.5873 21.1962 11.4612C21.2382 11.3351 21.255 11.2019 21.2456 11.0693C21.2362 10.9367 21.2007 10.8073 21.1412 10.6884C21.0818 10.5695 20.9995 10.4635 20.899 10.3764C20.7986 10.2893 20.682 10.2229 20.5559 10.1808C20.4297 10.1388 20.2965 10.122 20.1639 10.1314C20.0313 10.1409 19.9018 10.1763 19.7829 10.2357L15.1768 12.532V9.11039C15.1768 8.84211 15.0702 8.58481 14.8804 8.39511C14.6907 8.20541 14.4333 8.09883 14.165 8.09883C13.8967 8.09883 13.6393 8.20541 13.4496 8.39511C13.2598 8.58481 13.1532 8.84211 13.1532 9.11039V15.5667L8.54707 13.2628C8.3069 13.1428 8.02887 13.123 7.77414 13.2079C7.5194 13.2928 7.30883 13.4754 7.18875 13.7155C7.06867 13.9556 7.04891 14.2336 7.13382 14.4883C7.21873 14.7429 7.40136 14.9535 7.64152 15.0735L13.1532 17.8275V19.9771C11.9138 20.8385 10.4316 21.2815 8.92269 21.2415C5.17277 21.1517 2.01348 17.9008 2.0236 14.148C2.02264 12.7365 2.44532 11.3573 3.23696 10.1887C4.02861 9.02012 5.15278 8.11591 6.46406 7.59305C6.5956 7.54024 6.71458 7.46039 6.81328 7.35866C6.91197 7.25694 6.98819 7.13561 7.03698 7.00256C7.57067 5.54135 8.54074 4.27948 9.81574 3.3879C11.0908 2.49632 12.6091 2.01814 14.165 2.01814C15.7209 2.01814 17.2392 2.49632 18.5142 3.3879C19.7893 4.27948 20.7593 5.54135 21.293 7.00256C21.3418 7.13561 21.418 7.25694 21.5167 7.35866C21.6154 7.46039 21.7344 7.54024 21.8659 7.59305C23.177 8.1162 24.301 9.02048 25.0926 10.189C25.8842 11.3576 26.307 12.7366 26.3064 14.148C26.3165 17.9008 23.1572 21.1517 19.4073 21.2491Z" fill="white"/>
</svg>
