<svg width="30" height="30" viewBox="0 0 30 30" fill="none" xmlns="http://www.w3.org/2000/svg">
<path d="M15 23.75V27.5" stroke="#FE5959" stroke-width="1.66667" stroke-linecap="round" stroke-linejoin="round"/>
<path d="M23.75 12.5V15C23.75 17.3206 22.8281 19.5462 21.1872 21.1872C19.5462 22.8281 17.3206 23.75 15 23.75C12.6794 23.75 10.4538 22.8281 8.81282 21.1872C7.17187 19.5462 6.25 17.3206 6.25 15V12.5" stroke="#FE5959" stroke-width="1.66667" stroke-linecap="round" stroke-linejoin="round"/>
<path d="M18.75 6.25C18.75 4.17893 17.0711 2.5 15 2.5C12.9289 2.5 11.25 4.17893 11.25 6.25V15C11.25 17.0711 12.9289 18.75 15 18.75C17.0711 18.75 18.75 17.0711 18.75 15V6.25Z" stroke="#FE5959" stroke-width="1.66667" stroke-linecap="round" stroke-linejoin="round"/>
</svg>
